<svg xmlns="http://www.w3.org/2000/svg" viewBox="0 0 128 128" role="img" aria-labelledby="title desc">
  <title id="title">과학정보부 업무포털 아이콘</title>
  <desc id="desc">과학과 정보, 업무 관리를 상징하는 문서형 원자 아이콘</desc>
  <defs>
    <linearGradient id="bg" x1="18" y1="14" x2="110" y2="114" gradientUnits="userSpaceOnUse">
      <stop offset="0" stop-color="#1d4ed8" />
      <stop offset="0.55" stop-color="#2563eb" />
      <stop offset="1" stop-color="#22c55e" />
    </linearGradient>
    <linearGradient id="panel" x1="34" y1="28" x2="92" y2="98" gradientUnits="userSpaceOnUse">
      <stop offset="0" stop-color="#ffffff" stop-opacity="0.98" />
      <stop offset="1" stop-color="#e0f2fe" stop-opacity="0.95" />
    </linearGradient>
    <filter id="shadow" x="-20%" y="-20%" width="140%" height="140%">
      <feDropShadow dx="0" dy="8" stdDeviation="8" flood-color="#0f172a" flood-opacity="0.2" />
    </filter>
  </defs>

  <rect x="12" y="12" width="104" height="104" rx="28" fill="url(#bg)" filter="url(#shadow)" />
  <rect x="26" y="22" width="76" height="84" rx="20" fill="url(#panel)" />
  <path d="M82 22v18c0 5.523 4.477 10 10 10h10" fill="#bfdbfe" fill-opacity="0.55" />

  <g fill="none" stroke="#2563eb" stroke-linecap="round" stroke-width="3.2">
    <path d="M42 44h26" />
    <path d="M42 54h18" stroke-opacity="0.75" />
    <path d="M42 92h22" stroke-opacity="0.5" />
  </g>

  <g transform="translate(68 72)">
    <ellipse rx="24" ry="10" stroke="#2563eb" stroke-width="3.5" fill="none" opacity="0.92" />
    <ellipse rx="24" ry="10" stroke="#0ea5e9" stroke-width="3.5" fill="none" opacity="0.88" transform="rotate(60)" />
    <ellipse rx="24" ry="10" stroke="#22c55e" stroke-width="3.5" fill="none" opacity="0.8" transform="rotate(120)" />
    <circle r="6.5" fill="#1d4ed8" />
    <circle cx="24" cy="0" r="3.8" fill="#0ea5e9" />
    <circle cx="-12" cy="-20.8" r="3.8" fill="#22c55e" />
    <circle cx="-12" cy="20.8" r="3.8" fill="#f59e0b" />
  </g>

  <g transform="translate(36 72)">
    <rect x="0" y="0" width="18" height="18" rx="6" fill="#dbeafe" />
    <path d="M5.5 9.5l3.1 3.1L13.5 6.9" fill="none" stroke="#2563eb" stroke-linecap="round" stroke-linejoin="round" stroke-width="3" />
  </g>

  <rect x="12.75" y="12.75" width="102.5" height="102.5" rx="27.25" fill="none" stroke="#ffffff" stroke-opacity="0.16" stroke-width="1.5" />
</svg>
