<svg xmlns="http://www.w3.org/2000/svg" viewBox="0 0 128 128" role="img" aria-labelledby="title desc">
  <title id="title">과학정보부 업무포털 로고</title>
  <desc id="desc">웃는 얼굴과 원자 궤도, 체크 마크가 들어간 귀여운 과학 업무 포털 로고</desc>
  <defs>
    <linearGradient id="bg" x1="18" y1="16" x2="110" y2="112" gradientUnits="userSpaceOnUse">
      <stop offset="0" stop-color="#60a5fa" />
      <stop offset="0.55" stop-color="#2563eb" />
      <stop offset="1" stop-color="#22c55e" />
    </linearGradient>
    <linearGradient id="paper" x1="34" y1="28" x2="88" y2="96" gradientUnits="userSpaceOnUse">
      <stop offset="0" stop-color="#ffffff" />
      <stop offset="1" stop-color="#eff6ff" />
    </linearGradient>
    <filter id="shadow" x="-20%" y="-20%" width="140%" height="140%">
      <feDropShadow dx="0" dy="8" stdDeviation="8" flood-color="#0f172a" flood-opacity="0.18" />
    </filter>
  </defs>

  <rect x="12" y="12" width="104" height="104" rx="30" fill="url(#bg)" filter="url(#shadow)" />
  <rect x="28" y="22" width="72" height="84" rx="21" fill="url(#paper)" />
  <path d="M80 22v18c0 5.52 4.48 10 10 10h10" fill="#bfdbfe" opacity="0.75" />

  <g transform="translate(64 67)">
    <ellipse rx="25" ry="10.5" fill="none" stroke="#2563eb" stroke-width="3.5" opacity="0.92" />
    <ellipse rx="25" ry="10.5" fill="none" stroke="#0ea5e9" stroke-width="3.5" opacity="0.85" transform="rotate(60)" />
    <ellipse rx="25" ry="10.5" fill="none" stroke="#22c55e" stroke-width="3.5" opacity="0.78" transform="rotate(120)" />
    <circle r="11.5" fill="#ffffff" stroke="#1d4ed8" stroke-width="2.5" />
    <circle cx="-4" cy="-2" r="1.6" fill="#1d4ed8" />
    <circle cx="4" cy="-2" r="1.6" fill="#1d4ed8" />
    <path d="M-4 4.2c1.5 1.8 4.5 1.8 6 0" fill="none" stroke="#1d4ed8" stroke-linecap="round" stroke-width="2.4" />
    <circle cx="25" cy="0" r="4" fill="#0ea5e9" />
    <circle cx="-12.5" cy="-21.5" r="4" fill="#f59e0b" />
    <circle cx="-12.5" cy="21.5" r="4" fill="#22c55e" />
  </g>

  <g transform="translate(36 40)">
    <rect x="0" y="0" width="18" height="18" rx="6.5" fill="#dbeafe" />
    <path d="M5.5 9.5l3 3 5-6" fill="none" stroke="#2563eb" stroke-linecap="round" stroke-linejoin="round" stroke-width="3" />
  </g>

  <rect x="12.75" y="12.75" width="102.5" height="102.5" rx="29.25" fill="none" stroke="#ffffff" stroke-opacity="0.18" stroke-width="1.5" />
</svg>
